# xmcd CD database file
#
# Track frame offsets:
#	150
#	13826
#	27088
#	38188
#	52181
#	70713
#	82976
#	94113
#	104463
#	118526
#	130508
#	145453
#	156873
#	167763
#	179013
#
# Disc length: 2550 seconds
#
# Revision: 0
# Processed by: cddbd v1.5.1PL0 Copyright (c) Steve Scherf et al.
# Submitted via: CDex 1.50
#
DISCID=c909f40f
DTITLE=Kuhn, Paul - Meets Bert Kaempfert
DYEAR=2003
DGENRE=Jazz
TTITLE0=Remember When
TTITLE1=Welcome To My Heart
TTITLE2=L.O.V.E.
TTITLE3=The World We Knew
TTITLE4=For Bert
TTITLE5=You Turned My World Around
TTITLE6=Moon Over Naples
TTITLE7=My Way Of Life
TTITLE8=Don´t Talk To Me
TTITLE9=Strangers In The Night
TTITLE10=Love After Midnight
TTITLE11=It Makes No Difference
TTITLE12=A Swingin´ Safari
TTITLE13=I Can´t Help Remembering You
TTITLE14=Danke Schoen
EXTD=YEAR: 2003
EXTT0=
EXTT1=
EXTT2=
EXTT3=
EXTT4=
EXTT5=
EXTT6=
EXTT7=
EXTT8=
EXTT9=
EXTT10=
EXTT11=
EXTT12=
EXTT13=
EXTT14=
PLAYORDER=
